<svg xmlns="http://www.w3.org/2000/svg" x="0px" y="0px" width="60" height="60" viewBox="0,0,256,256">
<g fill="#ffffff" fill-rule="nonzero" stroke="none" stroke-width="1" stroke-linecap="butt" stroke-linejoin="miter" stroke-miterlimit="10" stroke-dasharray="" stroke-dashoffset="0" font-family="none" font-weight="none" font-size="none" text-anchor="none" style="mix-blend-mode: normal"><g transform="scale(4,4)"><path d="M40.227,12c10.919,0 11.773,0.854 11.773,11.773v16.453c0,10.919 -0.854,11.774 -11.773,11.774h-16.454c-10.919,0 -11.773,-0.855 -11.773,-11.773v-16.454c0,-10.919 0.854,-11.773 11.773,-11.773zM24.156,41.685c0.066,-0.116 0.676,-1.177 1.578,-2.75c-0.853,-1 -1.92,-1.251 -3.148,-0.939c-0.693,1.207 -1.147,1.999 -1.204,2.098c-0.439,0.766 -0.175,1.743 0.591,2.182c0.766,0.439 1.743,0.175 2.183,-0.591zM35.453,37.218c0.671,-1.833 -0.7,-3.039 -1.835,-3.198c-1.692,0 -3.429,0 -5.065,0c3.121,-5.439 6.782,-11.82 6.951,-12.114c0.44,-0.766 0.175,-1.743 -0.591,-2.182c-0.766,-0.439 -1.743,-0.175 -2.182,0.591c-0.042,0.074 -0.313,0.546 -0.731,1.274c-0.422,-0.736 -0.688,-1.2 -0.731,-1.274c-0.44,-0.766 -1.417,-1.03 -2.182,-0.591c-0.765,0.439 -1.031,1.416 -0.591,2.182c0.068,0.119 0.714,1.244 1.661,2.895c-1.567,2.731 -3.581,6.241 -5.29,9.219c-2.406,0 -4.109,0 -4.268,0c-0.883,0 -1.599,0.716 -1.599,1.599c0,0.883 0.716,1.599 1.599,1.599c0.354,0 8.413,0 14.854,0zM43.401,37.218c0.883,0 1.599,-0.716 1.599,-1.599c0,-0.883 -0.716,-1.599 -1.599,-1.599c-0.158,0 -1.867,0 -4.268,0c-1.52,-2.649 -3.285,-5.725 -4.76,-8.295c-1.262,1.557 -1.466,3.265 -0.759,5.103c2.937,5.119 6.073,10.585 6.229,10.856c0.439,0.766 1.417,1.03 2.182,0.591c0.766,-0.439 1.031,-1.417 0.591,-2.182c-0.068,-0.118 -0.71,-1.238 -1.65,-2.875c1.4,0 2.321,0 2.435,0z"></path></g></g>
</svg>